<svg width="32" height="32" viewBox="0 0 32 32" fill="none" xmlns="http://www.w3.org/2000/svg">
<path fill-rule="evenodd" clip-rule="evenodd" d="M10.5858 7H11H27H28V8V24V25H27H11H10.5858L10.2929 24.7071L2.29289 16.7071L1.58578 16L2.29289 15.2929L10.2929 7.29289L10.5858 7ZM11.4142 9L4.41421 16L11.4142 23H26V9H11.4142ZM15 11.5858L15.7071 12.2929L18 14.5858L20.2929 12.2929L21 11.5858L22.4142 13L21.7071 13.7071L19.4142 16L21.7071 18.2929L22.4142 19L21 20.4142L20.2929 19.7071L18 17.4142L15.7071 19.7071L15 20.4142L13.5858 19L14.2929 18.2929L16.5858 16L14.2929 13.7071L13.5858 13L15 11.5858Z" fill="white"/>
</svg>
